<svg width="611" height="717.942" viewBox="0 0 161.66 189.955" xmlns="http://www.w3.org/2000/svg">
  <path
    fill="#ffffff"
    d="m103.48 230.002 1.456-.874.132-2.565.132-2.564 1.72 1.182c.946.65 1.872 1.186 2.058 1.191.323.008 4.234-2.258 5.615-3.253.806-.582 1.218-.228-4.829-4.155l-4.432-2.878v-5.568c0-4.04.084-5.569.307-5.569.168 0 3.292 1.995 6.942 4.432s6.839 4.551 7.085 4.697 1.01.65 1.698 1.122c.754.517 1.365.77 1.539.635 2.47-1.897 5.625-4.438 5.78-4.654.11-.154-.067-.495-.397-.765-.59-.481-5.148-3.48-9.469-6.231-2.95-1.879-2.57-1.626-8.325-5.526l-5.027-3.407-.07-7.587c-.064-6.846-.029-7.586.358-7.586.368 0 5.44 3.27 14.47 9.328 1.277.857 2.418 1.52 2.534 1.473.605-.245 5.065-5.253 5.065-5.688 0-.334-.557-.864-1.623-1.543-.893-.568-1.759-1.169-1.924-1.334s-.596-.454-.956-.642c-.361-.188-3.395-2.153-6.742-4.368-5.302-3.508-8.46-5.56-10.65-6.922-.591-.369-.595-.411-.595-7.008 0-5.868.048-6.618.408-6.48.224.086 3.039 1.9 6.254 4.033 3.216 2.131 6.039 3.89 6.273 3.906.381.028.434-.738.497-7.179.039-3.965.136-7.21.216-7.21.282 0 1.333.637 4.44 2.69 1.726 1.14 3.182 2.073 3.236 2.073.053 0 .753.42 1.555.932l1.458.933.069 12.892.068 12.892h7.673l.07-10.385c.06-9.068.12-10.385.47-10.385.34 0 5.015 2.944 10.44 6.575l1.456.974.132 13.49.132 13.49 3.551.073c2.272.048 3.653-.028 3.834-.21.193-.192.285-3.775.286-11.164.001-7.217.094-10.911.274-10.971.287-.096 1.158.416 6.09 3.574 1.667 1.068 3.039 2.08 3.049 2.25s.002 3.005-.017 6.301c-.023 4.05.06 6.051.253 6.17.23.143 2.159-.982 6.204-3.62.16-.104.348-1.175.421-2.382.157-2.597.268-2.636 2.665-.946l1.52 1.072 1.942-1.045 1.943-1.044v-4.191l-1.323-.839c-.728-.46-1.614-1.07-1.97-1.355l-.648-.517 1.97-1.3 1.97-1.302.075-3.676c.04-2.022-.02-3.768-.132-3.88-.114-.113-1.04.374-2.059 1.08-4.18 2.898-8.126 5.334-8.445 5.212-.187-.072-1.875-1.129-3.752-2.349a301 301 0 0 0-4.405-2.823c-.546-.333-.993-.714-.993-.847 0-.215 3.64-2.673 8.408-5.68.913-.575 2.125-1.344 2.695-1.708s1.995-1.238 3.168-1.943 2.182-1.361 2.242-1.458-.105-1.365-.366-2.82c-.261-1.453-.557-3.327-.657-4.164-.107-.892-.31-1.519-.493-1.516-.172.002-2.217 1.245-4.546 2.762-4.224 2.751-9.128 5.94-15.02 9.764-1.712 1.112-3.29 2.021-3.507 2.021-.616 0-12.063-7.447-11.954-7.776.053-.162 1.247-1.008 2.653-1.881 8.413-5.225 15.525-9.87 15.525-10.14 0-.337-5.446-5.603-5.795-5.603-.477 0-1.646.652-4.2 2.342a554 554 0 0 1-4.54 2.966 953 953 0 0 0-6.736 4.416c-2.477 1.637-4.66 2.976-4.85 2.976s-2.338-1.262-4.773-2.805l-5.023-3.181c-.327-.207-.595-.532-.595-.723s1.2-1.111 2.666-2.045c5.918-3.766 8.71-5.667 8.702-5.924-.005-.149-.868-.817-1.918-1.485s-3.02-1.918-4.379-2.778c-4.153-2.63-4.936-3.188-5.012-3.575-.043-.218.724-.859 1.852-1.548a175 175 0 0 0 4.571-2.933c4.123-2.74 3.563-2.65 6.051-.987 1.183.79 3.342 2.213 4.797 3.161 1.455.949 4.61 3.022 7.012 4.609 2.4 1.586 4.561 2.965 4.801 3.064s.515.307.611.463.39.283.65.283c.551 0 5.94-4.946 6.048-5.55.04-.221-.318-.654-.794-.96a949 949 0 0 0-4.305-2.723 1553 1553 0 0 1-7.54-4.79 2032 2032 0 0 0-5.017-3.203c-1.086-.686-1.35-.42 3.164-3.2a355 355 0 0 0 5.437-3.425c1.317-.852 2.58-1.549 2.805-1.549s.899.354 1.496.787c.597.432 2.43 1.626 4.074 2.653a304 304 0 0 1 5.28 3.38c5.636 3.723 11.68 7.538 12.128 7.655.413.108.515-.073.647-1.154.086-.705.393-2.54.681-4.076.289-1.537.525-2.914.525-3.06 0-.147-.506-.546-1.124-.887-2.191-1.207-14.621-9.107-15.272-9.705-.34-.313-.323-.42.133-.852.918-.871 8.272-5.324 8.792-5.324.277 0 1.785.863 3.353 1.918 3.85 2.59 6.762 4.432 7.01 4.432.224 0 .548-3.219.548-5.447 0-2.02-.29-2.532-2.05-3.62-2.468-1.522-2.468-1.53-.265-2.87l1.918-1.165.077-1.888.077-1.887-1.743-1.22c-.96-.67-1.82-1.218-1.914-1.218s-.95.469-1.905 1.042c-2.575 1.546-2.508 1.572-2.662-1.033l-.132-2.24-3.137-2.077c-1.725-1.143-3.3-2.015-3.5-1.938-.299.115-.333 1.235-.195 6.45l.167 6.311-3.547 2.22c-1.95 1.222-3.95 2.495-4.443 2.829-.494.334-.998.607-1.122.607-.123 0-.256-4.911-.294-10.914l-.069-10.914h-7.673l-.132 13.34c-.085 8.537-.227 13.371-.397 13.429-.333.112-6.468 4.094-9.184 5.96-1.122.771-2.193 1.402-2.381 1.402-.272 0-.344-2.083-.358-10.319l-.016-10.318-4.018-.073-4.019-.073v25.895l-1.659 1.048c-.912.576-3.224 2.075-5.137 3.33-1.914 1.257-3.608 2.284-3.765 2.284-.199 0-.287-2.24-.287-7.307 0-6.973-.022-7.3-.488-7.179-.269.07-2.238 1.305-4.377 2.743-6.126 4.12-8.159 5.388-8.402 5.237-.125-.077-.226-2.985-.226-6.462v-6.321l2.182-1.467c1.2-.807 3.136-2.112 4.3-2.9 2.335-1.582 14.236-9.254 15.809-10.191.545-.326.992-.675.992-.777 0-.303-5.504-5.857-5.804-5.857-.151 0-4.037 2.5-8.635 5.556s-8.468 5.556-8.602 5.556c-.141 0-.242-3.182-.242-7.634v-7.634l2.58-1.721c8.442-5.632 16.892-11.157 18.775-12.277 1.196-.711 2.178-1.436 2.183-1.61.013-.438-.88-1.328-2.882-2.87-.936-.721-1.995-1.579-2.354-1.906-.359-.328-.784-.593-.945-.59s-1.244.67-2.409 1.484c-4.047 2.828-14.418 9.623-14.688 9.623-.179 0-.247-1.869-.2-5.49l.072-5.49 4.823-3.175c2.653-1.746 4.822-3.294 4.82-3.44-.005-.412-5.616-3.977-6.145-3.904-.26.035-1.091.482-1.849.992s-1.528.928-1.712.928c-.24 0-.334-.579-.334-2.07 0-1.814-.074-2.138-.595-2.604-.783-.7-2.428-1.676-2.824-1.676-.173 0-1.022.48-1.887 1.068l-1.573 1.068-.004 1.776c-.006 2.556-.17 2.69-1.878 1.54-.78-.525-1.614-.954-1.852-.954-.442 0-5.865 3.552-5.995 3.927-.085.245 1.547 1.428 6.025 4.369l3.307 2.171.071 5.482c.04 3.015-.008 5.482-.104 5.482-.097 0-.844-.436-1.66-.968-.815-.533-2.792-1.82-4.393-2.862a340 340 0 0 1-3.571-2.347c-.364-.25-1.317-.896-2.117-1.439-.8-.542-2.244-1.55-3.209-2.24s-1.917-1.252-2.116-1.246c-.4.01-6.1 4.725-6.226 5.149-.064.214 2.632 2.227 4.607 3.44.237.145 3.415 2.214 7.061 4.596s7.523 4.906 8.614 5.607 2.252 1.466 2.58 1.7c.593.423.595.448.595 7.953 0 4.743-.096 7.528-.26 7.528-.327 0-1.711-.884-10.022-6.397-3.69-2.448-6.847-4.451-7.016-4.451s-1.613 1.32-3.212 2.934c-2.628 2.654-2.859 2.964-2.416 3.241.269.17 1.698 1.087 3.175 2.04s2.864 1.815 3.082 1.917c.219.101 1.052.666 1.853 1.254 1.648 1.213 1.56 1.154 6.217 4.16a2695 2695 0 0 1 5.953 3.854l2.514 1.634.07 6.549c.056 5.124-.001 6.548-.262 6.548-.183 0-.929-.4-1.658-.89-7.986-5.36-11.053-7.3-11.3-7.147-.21.13-.242 2.188-.112 7.284.155 6.077.126 7.103-.199 7.103-.312 0-9.318-5.767-10.418-6.672-.256-.21-.33-3.15-.33-13.051v-12.78l-3.638-.091c-2.001-.05-3.787-.047-3.97.008-.256.077-.33 2.387-.33 10.39 0 6.756-.092 10.29-.267 10.29-.288 0-2.87-1.585-8.332-5.117l-3.44-2.224-.068-13.375-.069-13.375-3.768-.09c-2.072-.05-3.862-.018-3.977.07-.116.09-.203 4.994-.193 10.9.009 5.906-.084 10.8-.206 10.875-.123.076-1.167-.444-2.32-1.154-1.155-.711-3.14-1.924-4.414-2.696l-2.315-1.403v-6.551c0-3.604-.064-6.552-.143-6.552-.256 0-2.057 1.055-4.487 2.627l-2.381 1.541-.077 2.15c-.085 2.386-.18 2.476-1.643 1.58-1.714-1.05-2.66-1.548-2.943-1.548-.155 0-1.044.502-1.976 1.115l-1.696 1.114v1.94c0 1.896.02 1.952.817 2.392.45.248 1.353.825 2.009 1.281l1.191.83-1.942 1.304-1.942 1.304-.073 4.017c-.06 3.33-.01 4.018.303 4.018.206 0 1.251-.628 2.322-1.395 2.166-1.553 6.01-4.103 7.252-4.812.788-.449.834-.445 1.744.161a94 94 0 0 0 2.366 1.5c.787.483 1.84 1.138 2.34 1.455s1.452.896 2.117 1.285c2.153 1.26 2.816.669-9.375 8.367-4.406 2.782-5.814 3.798-5.79 4.18.075 1.179 1.273 7.668 1.457 7.883.193.227 1.56-.599 8.698-5.253 1.82-1.187 4.558-2.959 6.086-3.938s3.968-2.548 5.424-3.486c1.455-.938 2.818-1.707 3.028-1.71.21-.001.806.279 1.323.624a221 221 0 0 0 5.041 3.197c2.863 1.762 5.54 3.661 5.424 3.85-.142.23-2.534 1.836-7.673 5.156-6.978 4.507-10.45 6.83-10.45 6.988 0 .091 1.297 1.46 2.883 3.042l2.884 2.875 1.151-.781c.633-.43 1.985-1.323 3.003-1.984l7.54-4.902c9.41-6.116 8.757-5.745 9.38-5.33.298.199 1.654 1.075 3.013 1.947 4.995 3.208 6.488 4.24 6.59 4.554.06.18-1.612 1.44-3.816 2.876-6.48 4.22-7.494 4.929-7.485 5.238.005.162.563.652 1.241 1.09.678.436 1.419.916 1.646 1.067s1.662 1.088 3.19 2.082c5.791 3.766 5.634 3.638 5.102 4.157-.394.385-8.205 5.308-9.637 6.075-.345.184-1.737-.62-6.111-3.53-3.116-2.071-6.88-4.54-8.365-5.486a888 888 0 0 1-4.45-2.854c-.964-.623-1.836-1.1-1.939-1.058-.459.184-6.085 5.646-6.085 5.907 0 .16.863.798 1.918 1.417 1.055.62 2.419 1.444 3.03 1.833.612.39 1.921 1.217 2.91 1.84.99.622 2.275 1.472 2.857 1.889.582.416 2.444 1.652 4.137 2.746s3.171 2.14 3.286 2.325c.128.208.013.474-.3.697-.73.52-7.89 5.093-9.777 6.247l-1.597.976-5.682-3.773c-12.483-8.287-16.544-10.92-16.965-10.998-.534-.099-.581.047-1.314 4.05-.826 4.511-.842 4.37.594 5.154.671.367 2.608 1.56 4.303 2.652 10.73 6.908 11.163 7.215 10.854 7.715-.146.236-3.512 2.436-6.783 4.433l-2.31 1.411-3.378-2.198c-1.858-1.21-4.108-2.712-5-3.34-.89-.628-1.754-1.142-1.917-1.142-.207 0-.298 1.239-.298 4.082v4.083l1.844.995c1.014.548 1.896 1.133 1.96 1.3.065.169-.765.874-1.843 1.568l-1.96 1.262v3.834l1.693 1.095c.931.603 1.785 1.095 1.896 1.095s1.062-.535 2.113-1.19 2.043-1.19 2.205-1.19c.193 0 .295.77.295 2.238v2.238l3.224 2.127c1.773 1.17 3.392 2.127 3.597 2.127.312 0 .364-1.008.318-6.151-.03-3.383-.042-6.397-.025-6.697.02-.38.646-.922 2.08-1.801a277 277 0 0 0 4.287-2.696c1.23-.792 2.33-1.44 2.444-1.44.115 0 .24 4.97.277 11.046l.07 11.047 3.683.074c2.382.047 3.784-.027 3.968-.212.197-.197.286-4.378.286-13.436v-13.15l1.262-.793c.694-.437 3.254-2.091 5.689-3.677s4.605-2.895 4.823-2.91c.344-.024.414 1.338.53 10.291l.131 10.319 3.684.074c2.025.04 3.788-.031 3.916-.16.13-.129.225-5.902.213-12.912l-.02-12.68 1.528-.911a79 79 0 0 0 3.105-1.978c.867-.587 2.594-1.69 3.836-2.452l2.26-1.385.07 7.065c.039 3.886.178 7.172.31 7.304.14.141 1.201-.392 2.61-1.314 1.305-.854 3.13-2.02 4.057-2.592.926-.572 2.644-1.673 3.818-2.448s2.276-1.408 2.448-1.408c.232 0 .311 1.654.308 6.416-.002 3.53-.091 6.55-.198 6.715-.107.164-1.301.969-2.654 1.788-2.475 1.498-6.988 4.434-14.077 9.158-2.11 1.406-4.342 2.837-4.96 3.18-.62.342-1.125.703-1.125.802s1.238 1.464 2.75 3.033c1.708 1.77 2.891 2.799 3.12 2.71.347-.132 6.902-4.389 13.636-8.853 1.634-1.083 3.092-1.894 3.241-1.802.175.108.271 2.845.271 7.696v7.528l-2.4 1.518c-1.32.835-5.466 3.542-9.213 6.016a1210 1210 0 0 1-9.373 6.14c-1.409.902-2.562 1.76-2.562 1.906 0 .147.864.953 1.919 1.793s2.422 1.989 3.038 2.554c.625.573 1.269.956 1.455.865.185-.09 4.021-2.655 8.527-5.7s8.285-5.478 8.4-5.407.21 2.499.21 5.394v5.265l-.917.73c-.503.403-2.34 1.642-4.08 2.754-3.397 2.173-4.984 3.33-4.785 3.49 1.14.92 5.807 3.715 6.166 3.692.267-.017 1.111-.513 1.876-1.104.765-.59 1.53-1.073 1.698-1.073.205 0 .307.676.31 2.05.002 1.129.102 2.206.222 2.394.322.509 2.754 2.14 3.214 2.155.218.007 1.051-.38 1.852-.86zm-10.7-79.612c-.06-.188-.158-1.323-.217-2.523-.09-1.836-.034-2.248.359-2.604.753-.681 4.323-2.71 4.539-2.58.11.067.198 1.233.198 2.592v2.472l-.86.512a107 107 0 0 0-2.385 1.492c-1.06.681-1.559.876-1.635.639m16.172-.735c-.691-.439-1.362-.797-1.49-.797a.38.38 0 0 1-.322-.208c-.048-.115-.475-.48-.948-.812-.859-.603-.86-.607-.86-2.923 0-1.275.075-2.393.165-2.484.186-.185 1.326.402 3.672 1.891l1.587 1.008v2.47c0 1.467-.11 2.506-.274 2.56-.15.05-.84-.267-1.53-.705m-23.993-12.048c-1.236-.796-2.248-1.56-2.248-1.699 0-.362 4.352-2.925 4.968-2.925.285 0 .908.327 1.385.727.478.4 1.356 1.063 1.954 1.473s1.085.844 1.085.965c0 .283-4.144 2.922-4.573 2.913-.177-.004-1.334-.658-2.57-1.454m28.84.07c-2.173-1.418-2.665-1.862-2.434-2.199.264-.384 4.058-2.76 4.408-2.76.39 0 4.376 2.884 4.376 3.166 0 .227-4.101 2.921-4.44 2.917-.105 0-.964-.507-1.91-1.124m-18.167-9.265a60 60 0 0 0-2.183-1.304l-.817-.45v-2.527c0-1.591.103-2.525.279-2.525.153 0 1.284.662 2.513 1.472l2.235 1.471v2.365c0 1.719-.09 2.363-.33 2.358-.182-.004-.946-.39-1.697-.86m9.965-1.58v-2.448l2.216-1.39c1.218-.763 2.333-1.388 2.479-1.388.378 0 .693 4.087.363 4.705-.245.457-4.343 2.968-4.844 2.968-.118 0-.214-1.102-.214-2.448"
    transform="translate(-20.93 -40.908)"
  />
</svg>
