<svg xmlns="http://www.w3.org/2000/svg" width="256" height="256" viewBox="0 0 256 256" role="img" aria-label="Snowflake mark inverted">
  <title>Snowflake Mark (Inverted)</title>
  <desc>Geometric six-armed snowflake. Inverted color #FFFFFF.</desc>
  <rect width="100%" height="100%" fill="none"/>
  <g stroke="#FFFFFF" stroke-width="12" stroke-linecap="round" stroke-linejoin="round" fill="none" transform="translate(128,128)">
    <!-- Main vertical arm -->
    <line x1="0" y1="-96" x2="0" y2="96"/>
    <!-- Rotate 60° and 120° for other arms -->
    <g transform="rotate(60)">
      <line x1="0" y1="-96" x2="0" y2="96"/>
    </g>
    <g transform="rotate(120)">
      <line x1="0" y1="-96" x2="0" y2="96"/>
    </g>
    <!-- Small branches on each arm -->
    <g>
      <g>
        <line x1="0" y1="-64" x2="16" y2="-80"/>
        <line x1="0" y1="-64" x2="-16" y2="-80"/>
        <line x1="0" y1="64" x2="16" y2="80"/>
        <line x1="0" y1="64" x2="-16" y2="80"/>
      </g>
      <g transform="rotate(60)">
        <line x1="0" y1="-64" x2="16" y2="-80"/>
        <line x1="0" y1="-64" x2="-16" y2="-80"/>
        <line x1="0" y1="64" x2="16" y2="80"/>
        <line x1="0" y1="64" x2="-16" y2="80"/>
      </g>
      <g transform="rotate(120)">
        <line x1="0" y1="-64" x2="16" y2="-80"/>
        <line x1="0" y1="-64" x2="-16" y2="-80"/>
        <line x1="0" y1="64" x2="16" y2="80"/>
        <line x1="0" y1="64" x2="-16" y2="80"/>
      </g>
    </g>
    <!-- Center -->
    <circle cx="0" cy="0" r="10" fill="#FFFFFF" stroke="none"/>
  </g>
</svg>


