<svg width="32" height="32" viewBox="0 0 32 32" fill="none" xmlns="http://www.w3.org/2000/svg">
  <circle cx="16" cy="16" r="16" fill="#2775CA"/>
  <path d="M20.8 14.4C20.8 13.2933 20.0533 12.6133 18.56 12.36V10.4H17.44V12.2933C17.1467 12.2933 16.8533 12.3067 16.56 12.32V10.4H15.44V12.36C15.2267 12.3733 15.0133 12.3867 14.8133 12.4L13.3333 12.4267V13.6267C13.7467 13.6133 14.1467 13.6 14.3333 13.8667C14.44 13.9867 14.4933 14.1333 14.4933 14.28V17.72C14.4933 17.8667 14.44 18.0133 14.3333 18.1333C14.1467 18.4 13.7467 18.3867 13.3333 18.3733V19.5733L14.8133 19.6C15.0133 19.6133 15.2267 19.6267 15.44 19.64V21.6H16.56V19.7067C16.8533 19.72 17.1467 19.7333 17.44 19.7333V21.6H18.56V19.64C20.0533 19.3867 20.8 18.7067 20.8 17.6V14.4ZM15.6133 14.24C15.6133 13.5333 16.2 13.2 17.2 13.0667C17.44 13.0267 17.68 13 17.92 12.9867V15.2533C17.68 15.2533 17.44 15.24 17.2 15.2267C16.2 15.1733 15.6133 14.9467 15.6133 14.24ZM18.56 18.0133V18.3333C18.56 18.76 18.1467 19.0667 17.44 19.1333V16.5333C17.68 16.5467 17.92 16.56 18.16 16.5867C18.32 16.6 18.4667 16.6133 18.6 16.64C19.3067 16.7467 19.68 16.9867 19.68 17.4667V17.7867C19.68 18.2667 19.3067 18.7333 18.56 18.8V18.0133Z" fill="white"/>
</svg>
