<svg width="32" height="32" viewBox="0 0 32 32" fill="none" xmlns="http://www.w3.org/2000/svg">
  <circle cx="16" cy="16" r="16" fill="#26A17B"/>
  <path d="M17.92 15.08V13.52H21.6V10.4H10.4V13.52H14.08V15.08C11.6267 15.2 9.76 15.6533 9.76 16.2C9.76 16.7467 11.6267 17.2 14.08 17.32V23.2H17.92V17.32C20.3733 17.2 22.24 16.7467 22.24 16.2C22.24 15.6533 20.3733 15.2 17.92 15.08ZM17.92 17.0667C17.3867 17.0933 16.8267 17.12 16.24 17.12H15.76C15.1733 17.12 14.6133 17.0933 14.08 17.0667V15.3333C14.6133 15.36 15.1733 15.3733 15.76 15.3733H16.24C16.8267 15.3733 17.3867 15.36 17.92 15.3333V17.0667Z" fill="white"/>
</svg>
