<svg width="32" height="32" viewBox="0 0 32 32" fill="none" xmlns="http://www.w3.org/2000/svg">
  <defs>
    <linearGradient id="rainbow-gradient" x1="0%" y1="0%" x2="100%" y2="100%">
      <stop offset="0%" style="stop-color:#FF0080;stop-opacity:1" />
      <stop offset="20%" style="stop-color:#FF6B00;stop-opacity:1" />
      <stop offset="40%" style="stop-color:#FFD600;stop-opacity:1" />
      <stop offset="60%" style="stop-color:#00FF94;stop-opacity:1" />
      <stop offset="80%" style="stop-color:#0099FF;stop-opacity:1" />
      <stop offset="100%" style="stop-color:#9D00FF;stop-opacity:1" />
    </linearGradient>
    <linearGradient id="rainbow-gradient-2" x1="100%" y1="0%" x2="0%" y2="100%">
      <stop offset="0%" style="stop-color:#9D00FF;stop-opacity:1" />
      <stop offset="25%" style="stop-color:#0099FF;stop-opacity:1" />
      <stop offset="50%" style="stop-color:#00FF94;stop-opacity:1" />
      <stop offset="75%" style="stop-color:#FFD600;stop-opacity:1" />
      <stop offset="100%" style="stop-color:#FF0080;stop-opacity:1" />
    </linearGradient>
  </defs>
  <circle cx="16" cy="16" r="16" fill="url(#rainbow-gradient)"/>
  <circle cx="16" cy="16" r="13" fill="#1a1a1a" opacity="0.15"/>
  <path d="M16 7c-5 0-9 4-9 9s4 9 9 9 9-4 9-9-4-9-9-9zm0 16c-3.9 0-7-3.1-7-7s3.1-7 7-7 7 3.1 7 7-3.1 7-7 7z" fill="white" opacity="0.95"/>
  <circle cx="16" cy="16" r="5.5" fill="url(#rainbow-gradient-2)"/>
  <circle cx="16" cy="16" r="3.5" fill="#1a1a1a" opacity="0.2"/>
  <path d="M13 14.5l3 1.5-3 1.5v-3zm3 1.5l3-1.5v3l-3-1.5z" fill="white" opacity="0.9"/>
</svg>
