<svg xmlns="http://www.w3.org/2000/svg" viewBox="0 0 100 100">
  <defs>
    <linearGradient id="fireGradient" x1="0%" y1="100%" x2="0%" y2="0%">
      <stop offset="0%" style="stop-color:#ff6b35;stop-opacity:1" />
      <stop offset="100%" style="stop-color:#ff4444;stop-opacity:1" />
    </linearGradient>
    <linearGradient id="bgGradient" x1="0%" y1="100%" x2="0%" y2="0%">
      <stop offset="0%" style="stop-color:#e85a30;stop-opacity:1" />
      <stop offset="100%" style="stop-color:#ff6b45;stop-opacity:1" />
    </linearGradient>
  </defs>
  <!-- Orange circular background -->
  <circle cx="50" cy="50" r="50" fill="url(#bgGradient)"/>
  <!-- Flame shape - white/cream colored -->
  <path d="M50 18
           C50 18 62 32 62 45
           C62 48 60 52 58 54
           C60 50 58 44 54 42
           C54 52 50 58 50 58
           C50 58 46 52 46 42
           C42 44 40 50 42 54
           C40 52 38 48 38 45
           C38 32 50 18 50 18Z"
        fill="#fff3e6"
        stroke="none"/>
  <!-- Inner flame detail -->
  <path d="M50 28
           C50 28 56 38 56 46
           C56 50 54 54 50 56
           C46 54 44 50 44 46
           C44 38 50 28 50 28Z"
        fill="url(#fireGradient)"
        opacity="0.6"/>
</svg>
