<svg xmlns="http://www.w3.org/2000/svg" viewBox="0 0 32 32">
  <circle cx="16" cy="16" r="16" fill="#2775CA"/>
  <path fill="#fff" d="M20.022 18.124c0-2.124-1.28-2.852-3.84-3.156-1.828-.224-2.196-.68-2.196-1.48 0-.8.644-1.308 1.916-1.308 1.152 0 1.772.384 2.068 1.308a.43.43 0 0 0 .42.304h.952a.394.394 0 0 0 .392-.448c-.252-1.4-1.236-2.472-2.816-2.716v-1.528a.4.4 0 0 0-.4-.4h-.86a.4.4 0 0 0-.4.4v1.472c-1.88.304-3.06 1.496-3.06 3.024 0 2.028 1.236 2.8 3.792 3.108 1.74.26 2.248.64 2.248 1.556 0 .916-.828 1.54-1.956 1.54-1.528 0-2.08-.64-2.28-1.496a.424.424 0 0 0-.4-.332h-1.02a.393.393 0 0 0-.392.444c.24 1.604 1.264 2.572 3.064 2.908v1.528c0 .224.18.4.4.4h.86a.4.4 0 0 0 .4-.4v-1.508c1.9-.328 3.108-1.548 3.108-3.224z"/>
  <path fill="#fff" d="M12.5 24.5a.5.5 0 0 1-.5-.5c0-4.14 3.36-7.5 7.5-7.5a.5.5 0 0 1 0 1c-3.584 0-6.5 2.916-6.5 6.5a.5.5 0 0 1-.5.5zm7-17a.5.5 0 0 1 .5.5c0 4.14-3.36 7.5-7.5 7.5a.5.5 0 0 1 0-1c3.584 0 6.5-2.916 6.5-6.5a.5.5 0 0 1 .5-.5z"/>
</svg>
