<svg xmlns="http://www.w3.org/2000/svg" viewBox="0 0 200 200">
  <circle cx="100" cy="100" r="100" fill="#2775CA"/>
  <path d="M127.3 116.7c0-14.2-8.5-19.1-25.5-21.1-12.2-1.7-14.6-5.1-14.6-11.1 0-5.9 4.2-9.7 12.6-9.7 7.6 0 11.8 2.5 13.9 8.8.4 1.3 1.7 2.1 3 2.1h6.8c1.7 0 3-1.3 3-3v-.4c-1.7-9.7-8.9-15.5-18.8-17.1V57c0-1.7-1.3-3-3.4-3.4h-6.3c-1.7 0-3 1.3-3.4 3.4v8c-12.6 1.7-20.6 10.1-20.6 20.2 0 13.4 8 18.7 25.1 20.7 11.3 2.1 15 4.6 15 10.6 0 6.3-5.5 10.6-13 10.6-10.1 0-13.8-4.2-15.1-9.7-.4-1.3-1.7-2.1-3-2.1h-7.2c-1.7 0-3 1.3-3 3v.4c1.7 10.9 8.5 16.8 21.8 18.7v8.4c0 1.7 1.3 3 3.4 3.4h6.3c1.7 0 3-1.3 3.4-3.4v-8.4c12.6-2.1 21-10.5 21-21.2z" fill="#fff"/>
  <path d="M78.1 161.7c-28.5-10.5-43.1-42.3-32.7-70.8 5.5-14.6 17-26 32.7-31.9 1.3-.4 2.1-1.7 2.1-3.4v-6c0-1.7-1.3-3-2.5-3.4-.4 0-1.3 0-1.7.4C42 56.7 22.4 94.8 32.5 128.8c6 20.2 21.4 35.6 41.6 41.6 1.3.4 2.5-.4 3-1.7.4-.4.4-.9.4-1.3v-6c0-1.3-.8-2.5-2.5-3.4-.4-.4.4.4 3 .4zm47.2-115c-1.3-.4-2.5.4-3 1.7-.4.4-.4.9-.4 1.3v6c0 1.7 1.3 2.9 2.5 3.4 28.5 10.5 43.1 42.3 32.7 70.8-5.5 14.6-17 26-32.7 31.9-1.3.4-2.1 1.7-2.1 3.4v6c0 1.7 1.3 3 2.5 3.4.4 0 1.3 0 1.7-.4 34-10.1 53.6-48.2 43.5-82.3-6-20.2-21.4-35.6-41.6-41.6-.4-.4.4.4-3-.4z" fill="#fff"/>
</svg>