<svg xmlns="http://www.w3.org/2000/svg" viewBox="0 0 1920 1080" width="1920" height="1080" role="img" aria-label="Snowflakes background">
  <title>Snowflakes Background</title>
  <desc>Static distribution of semi-transparent white snowflake dots across a 1920x1080 canvas. Scales responsively.</desc>
  <rect width="100%" height="100%" fill="none"/>
  <g fill="rgba(255,255,255,0.12)">
    <!-- Generated dot field approximating the canvas effect -->
    <circle cx="120" cy="80" r="3"/>
    <circle cx="240" cy="160" r="2"/>
    <circle cx="360" cy="90" r="2.5"/>
    <circle cx="480" cy="140" r="1.8"/>
    <circle cx="600" cy="60" r="2.2"/>
    <circle cx="720" cy="130" r="2.8"/>
    <circle cx="840" cy="50" r="1.6"/>
    <circle cx="960" cy="150" r="2.2"/>
    <circle cx="1080" cy="70" r="2.6"/>
    <circle cx="1200" cy="120" r="1.9"/>
    <circle cx="1320" cy="90" r="2.4"/>
    <circle cx="1440" cy="140" r="2.8"/>
    <circle cx="1560" cy="60" r="1.7"/>
    <circle cx="1680" cy="110" r="2.5"/>
    <circle cx="1800" cy="80" r="2.1"/>

    <!-- Row 2 -->
    <circle cx="80" cy="240" r="2.2"/>
    <circle cx="200" cy="300" r="1.8"/>
    <circle cx="320" cy="220" r="2.6"/>
    <circle cx="440" cy="280" r="2.0"/>
    <circle cx="560" cy="240" r="3.0"/>
    <circle cx="680" cy="320" r="2.4"/>
    <circle cx="800" cy="260" r="2.1"/>
    <circle cx="920" cy="300" r="1.9"/>
    <circle cx="1040" cy="260" r="2.8"/>
    <circle cx="1160" cy="320" r="2.3"/>
    <circle cx="1280" cy="240" r="2.0"/>
    <circle cx="1400" cy="300" r="2.6"/>
    <circle cx="1520" cy="220" r="2.3"/>
    <circle cx="1640" cy="280" r="1.7"/>
    <circle cx="1760" cy="240" r="2.4"/>

    <!-- Row 3 -->
    <circle cx="100" cy="420" r="2.8"/>
    <circle cx="220" cy="380" r="1.9"/>
    <circle cx="340" cy="460" r="2.2"/>
    <circle cx="460" cy="400" r="2.5"/>
    <circle cx="580" cy="440" r="1.8"/>
    <circle cx="700" cy="380" r="2.1"/>
    <circle cx="820" cy="460" r="2.9"/>
    <circle cx="940" cy="400" r="2.0"/>
    <circle cx="1060" cy="440" r="2.6"/>
    <circle cx="1180" cy="380" r="2.3"/>
    <circle cx="1300" cy="460" r="2.0"/>
    <circle cx="1420" cy="420" r="2.7"/>
    <circle cx="1540" cy="380" r="1.8"/>
    <circle cx="1660" cy="440" r="2.2"/>
    <circle cx="1780" cy="400" r="2.5"/>

    <!-- Row 4 -->
    <circle cx="60" cy="560" r="2.1"/>
    <circle cx="180" cy="620" r="1.9"/>
    <circle cx="300" cy="580" r="2.3"/>
    <circle cx="420" cy="640" r="2.7"/>
    <circle cx="540" cy="560" r="2.0"/>
    <circle cx="660" cy="620" r="2.4"/>
    <circle cx="780" cy="600" r="2.2"/>
    <circle cx="900" cy="560" r="2.9"/>
    <circle cx="1020" cy="640" r="2.1"/>
    <circle cx="1140" cy="600" r="1.8"/>
    <circle cx="1260" cy="620" r="2.5"/>
    <circle cx="1380" cy="560" r="2.3"/>
    <circle cx="1500" cy="640" r="2.0"/>
    <circle cx="1620" cy="600" r="2.6"/>
    <circle cx="1740" cy="620" r="2.4"/>

    <!-- Row 5 -->
    <circle cx="120" cy="760" r="2.8"/>
    <circle cx="240" cy="700" r="2.1"/>
    <circle cx="360" cy="760" r="1.9"/>
    <circle cx="480" cy="720" r="2.6"/>
    <circle cx="600" cy="780" r="2.2"/>
    <circle cx="720" cy="740" r="2.0"/>
    <circle cx="840" cy="780" r="2.5"/>
    <circle cx="960" cy="740" r="2.3"/>
    <circle cx="1080" cy="780" r="2.0"/>
    <circle cx="1200" cy="720" r="2.7"/>
    <circle cx="1320" cy="760" r="1.8"/>
    <circle cx="1440" cy="740" r="2.2"/>
    <circle cx="1560" cy="780" r="2.6"/>
    <circle cx="1680" cy="700" r="2.4"/>
    <circle cx="1800" cy="760" r="2.1"/>

    <!-- Row 6 -->
    <circle cx="80" cy="920" r="2.3"/>
    <circle cx="200" cy="980" r="2.0"/>
    <circle cx="320" cy="940" r="2.6"/>
    <circle cx="440" cy="1000" r="2.2"/>
    <circle cx="560" cy="940" r="2.7"/>
    <circle cx="680" cy="980" r="1.9"/>
    <circle cx="800" cy="960" r="2.2"/>
    <circle cx="920" cy="920" r="2.9"/>
    <circle cx="1040" cy="1000" r="2.1"/>
    <circle cx="1160" cy="960" r="1.8"/>
    <circle cx="1280" cy="980" r="2.5"/>
    <circle cx="1400" cy="940" r="2.3"/>
    <circle cx="1520" cy="1000" r="2.0"/>
    <circle cx="1640" cy="960" r="2.6"/>
    <circle cx="1760" cy="980" r="2.4"/>
  </g>
</svg>


